<?xml version="1.0" encoding="UTF-8" standalone="no"?>
<svg
   xmlns:dc="http://purl.org/dc/elements/1.1/"
   xmlns:cc="http://creativecommons.org/ns#"
   xmlns:rdf="http://www.w3.org/1999/02/22-rdf-syntax-ns#"
   xmlns:svg="http://www.w3.org/2000/svg"
   xmlns="http://www.w3.org/2000/svg"
   xmlns:sodipodi="http://sodipodi.sourceforge.net/DTD/sodipodi-0.dtd"
   xmlns:inkscape="http://www.inkscape.org/namespaces/inkscape"
   width="2200"
   height="1600"
   viewBox="0 0 582.083 423.33335"
   version="1.1"
   id="svg8"
   inkscape:version="1.0 (4035a4f, 2020-05-01)"
   sodipodi:docname="notice logo.svg">
  <defs
     id="defs2">
    <clipPath
       id="clipPath849"
       clipPathUnits="userSpaceOnUse">
      <path
         id="path847"
         d="M 0,1350 H 1900 V 0 H 0 Z" />
    </clipPath>
  </defs>
  <sodipodi:namedview
     id="base"
     pagecolor="#ffffff"
     bordercolor="#666666"
     borderopacity="1.0"
     inkscape:pageopacity="0.0"
     inkscape:pageshadow="2"
     inkscape:zoom="0.35"
     inkscape:cx="1135.8798"
     inkscape:cy="830.35714"
     inkscape:document-units="mm"
     inkscape:current-layer="layer1"
     inkscape:document-rotation="0"
     showgrid="false"
     units="px"
     inkscape:window-width="1574"
     inkscape:window-height="950"
     inkscape:window-x="501"
     inkscape:window-y="56"
     inkscape:window-maximized="0" />
  <metadata
     id="metadata5">
    <rdf:RDF>
      <cc:Work
         rdf:about="">
        <dc:format>image/svg+xml</dc:format>
        <dc:type
           rdf:resource="http://purl.org/dc/dcmitype/StillImage" />
        <dc:title />
      </cc:Work>
    </rdf:RDF>
  </metadata>
  <g
     inkscape:label="Layer 1"
     inkscape:groupmode="layer"
     id="layer1">
    <g
       transform="matrix(0.35277777,0,0,-0.35277777,-44.853203,463.26312)"
       clip-path="url(#clipPath849)"
       id="g845">
      <g
         transform="translate(472.666,670.875)"
         id="g851">
        <path
           id="path853"
           style="fill:#000000;fill-opacity:1;fill-rule:nonzero;stroke:none"
           d="m 0,0 c -11.035,0 -16.967,-5.945 -17.811,-17.811 v -225.791 c 0.409,-3.4 -0.435,-5.087 -2.544,-5.087 -1.266,0 -3.613,1.687 -6.988,5.087 -6.802,6.777 -86.298,86.061 -238.511,237.868 -4.246,3.822 -8.913,5.734 -14.001,5.734 -11.444,-0.436 -17.403,-6.381 -17.811,-17.851 v -277.878 c 0.408,-11.904 6.367,-17.835 17.811,-17.835 11.021,0 16.954,5.945 17.797,17.849 v 221.914 c -0.421,4.668 0.646,7.014 3.191,7.014 2.544,0 5.931,-2.135 10.178,-6.367 l 234.688,-234.69 c 4.245,-3.822 8.701,-5.72 13.368,-5.72 1.688,0 3.375,0.197 5.088,0.632 8.465,1.688 13.131,7.633 13.988,17.811 v 277.31 C 17.586,-5.945 11.443,0 0,0" />
      </g>
      <g
         transform="translate(1136.0488,670.2285)"
         id="g855">
        <path
           id="path857"
           style="fill:#000000;fill-opacity:1;fill-rule:nonzero;stroke:none"
           d="m 0,0 h -236.69 c -12.3,-0.856 -18.431,-6.789 -18.431,-17.811 0,-11.021 6.131,-16.953 18.431,-17.796 h 55.42 c 17.797,-2.136 26.709,-9.981 26.709,-23.546 v -235.968 c 0.422,-11.865 6.355,-17.797 17.797,-17.797 11.022,0 16.954,5.932 17.825,17.797 v 237.879 c 0,14.41 9.096,21.635 27.341,21.635 H 0 c 12.287,0.843 18.431,6.775 18.431,17.796 C 18.431,-6.789 12.287,-0.856 0,0" />
      </g>
      <g
         transform="translate(1200.9111,670.2285)"
         id="g859">
        <path
           id="path861"
           style="fill:#000000;fill-opacity:1;fill-rule:nonzero;stroke:none"
           d="m 0,0 c -11.443,0 -17.389,-5.945 -17.811,-17.811 v -277.31 c 0.422,-11.865 6.368,-17.797 17.811,-17.797 11.021,0 16.954,5.932 17.811,17.797 v 277.31 C 16.954,-5.945 11.021,0 0,0" />
      </g>
      <g
         transform="translate(1705.9102,391.0195)"
         id="g863">
        <path
           id="path865"
           style="fill:#000000;fill-opacity:1;fill-rule:nonzero;stroke:none"
           d="m 0,0 c -14.409,0 -26.709,5.182 -36.887,15.583 -10.177,10.375 -15.265,22.78 -15.265,37.203 0,14.831 5.193,27.343 15.582,37.52 10.388,10.177 23.005,15.266 37.849,15.266 11.866,0.844 17.811,6.578 17.811,17.178 0,11.443 -6.367,17.178 -19.09,17.178 -14.409,0 -26.709,5.181 -36.887,15.583 -10.177,10.375 -15.265,22.78 -15.265,37.203 0,14.409 5.088,26.814 15.265,37.203 C -26.709,240.306 -14.409,245.5 0,245.5 h 1.279 c 11.444,0.844 17.164,6.578 17.164,17.178 0,10.586 -5.72,16.109 -17.164,16.531 H 0 c -23.742,0 -44.098,-8.477 -61.052,-25.443 -16.967,-16.954 -25.443,-37.309 -25.443,-61.052 0,-28.845 12.089,-52.153 36.254,-69.964 -24.165,-17.811 -36.254,-41.132 -36.254,-69.964 0,-23.757 8.476,-44.111 25.443,-61.065 16.954,-16.953 37.31,-25.43 61.052,-25.43 h 1.279 c 11.444,0.844 17.164,6.564 17.164,17.164 C 18.443,-5.523 12.301,0 0,0" />
      </g>
      <g
         transform="translate(1558.8984,1113.4521)"
         id="g867">
        <path
           id="path869"
           style="fill:#000000;fill-opacity:1;fill-rule:nonzero;stroke:none"
           d="m 0,0 -703.931,-98.021 c -10.372,-1.782 -18.857,-11.849 -18.857,-22.373 v -406.569 c -7.271,13.586 -16.794,26.239 -28.589,37.954 -30.743,30.52 -67.736,45.785 -110.977,45.785 -36.9,0 -69.661,-11.548 -98.268,-34.658 -28.634,-23.124 -46.748,-52.47 -54.395,-88.092 -2.531,-11.455 3.402,-17.177 17.824,-17.177 9.308,0 15.266,5.722 17.797,17.177 7.212,25.854 21.622,47.065 43.255,63.597 21.634,16.545 46.207,24.812 73.787,24.812 33.908,0 62.739,-11.879 86.496,-35.622 23.743,-23.744 35.608,-52.576 35.608,-86.496 0,-33.499 -11.865,-62.238 -35.608,-86.179 -23.757,-23.967 -52.588,-35.938 -86.496,-35.938 -27.158,0 -51.639,8.266 -73.47,24.798 -21.845,16.545 -36.795,37.744 -44.837,63.609 -0.857,11.444 -6.591,17.178 -17.178,17.178 -13.987,0 -19.709,-5.734 -17.178,-17.178 8.491,-36.477 26.816,-66.047 55.028,-88.723 28.185,-22.689 60.735,-34.026 97.635,-34.026 43.241,0 80.234,15.252 110.977,45.786 30.743,30.532 46.115,67.419 46.115,110.673 0,6.496 -0.353,12.845 -1.047,19.053 -0.002,66.426 -0.006,297.401 -0.006,401.085 v 1.987 c 0,2.086 8.475,5.31 18.833,7.165 l 669.719,97.749 C -7.404,-70.787 1.07,-77.878 1.07,-88.401 v -330.257 c -10.4,15.895 -23.855,29.677 -40.404,41.311 -27.145,19.09 -57.466,28.621 -90.951,28.621 -43.255,0 -80.247,-15.265 -110.99,-45.785 -30.745,-30.533 -46.116,-67.42 -46.116,-110.674 0,-43.254 15.371,-80.141 46.116,-110.673 30.743,-30.534 67.735,-45.787 110.99,-45.787 34.342,0 64.769,9.533 91.267,28.622 26.498,19.076 45.259,44.731 56.293,76.951 1.688,5.089 0.317,9.439 -4.139,13.038 -4.443,3.599 -9.215,5.405 -14.304,5.405 -7.225,0 -12.313,-2.755 -15.267,-8.266 -0.856,-3.401 -1.7,-6.79 -2.544,-10.177 -10.599,-20.777 -25.866,-37.836 -45.798,-51.204 -19.934,-13.355 -41.765,-20.026 -65.508,-20.026 -33.499,0 -62.238,11.971 -86.18,35.938 -23.967,23.941 -35.937,52.68 -35.937,86.179 0,33.92 11.97,62.752 35.937,86.496 23.942,23.743 52.681,35.622 86.18,35.622 23.307,0 45.152,-6.579 65.508,-19.723 20.354,-13.144 35.199,-29.465 44.519,-48.963 1.279,-3.823 2.334,-7.435 3.191,-10.823 2.953,-5.089 8.266,-7.634 15.899,-7.634 10.484,0 16.633,3.178 18.475,9.518 0.843,1.972 1.341,4.674 1.345,8.368 0,0 0.196,293.626 0.205,438.539 C 18.857,-9.933 10.371,1.78 0,0" />
      </g>
    </g>
  </g>
</svg>
